# xmcd
#
# Track frame offsets:
#	150
#	23127
#	44503
#	70993
#	93837
#	114028
#	132370
#	156262
#	175785
#	196783
#	218430
#
# Disc length: 3436 seconds
#
# Revision: 1
# Processed by: cddbd v1.5.1PL0 Copyright (c) Steve Scherf et al.
# Submitted via: CDex 1.50Beta5
#
DISCID=880d6a0b
DTITLE=aiko - 夏服
DYEAR=2001
DGENRE=
TTITLE0=飛行機
TTITLE1=be master of life
TTITLE2=ロージー
TTITLE3=密かなさよならの仕方
TTITLE4=終わらない日々
TTITLE5=心日和
TTITLE6=September
TTITLE7=雨踏むオーバーオール
TTITLE8=アスパラ
TTITLE9=ボーイフレンド
TTITLE10=初恋
EXTD=
EXTT0=
EXTT1=
EXTT2=
EXTT3=
EXTT4=
EXTT5=
EXTT6=
EXTT7=
EXTT8=
EXTT9=
EXTT10=
PLAYORDER=
